<?xml version="1.0" encoding="utf-8"?>
<!-- Generator: Adobe Illustrator 26.3.1, SVG Export Plug-In . SVG Version: 6.00 Build 0)  -->
<svg version="1.1" id="Layer_1" xmlns="http://www.w3.org/2000/svg" xmlns:xlink="http://www.w3.org/1999/xlink" x="0px" y="0px"
	 viewBox="0 0 53.8 53.8" style="enable-background:new 0 0 53.8 53.8;" xml:space="preserve">
<style type="text/css">
	.st0{fill:#2FB2FC;}
</style>
<g id="Layer_1_00000041982403494335101540000012317782126214603151_">
</g>
<g id="Layer_2_00000104697420924523086190000005903718512256645019_">
	<path id="Path_5" class="st0" d="M26.9,0L26.9,0C12.1,0,0,12.1,0,26.9l0,0l0,0c0,14.9,12.1,26.9,26.9,26.9l0,0
		c14.9,0,26.9-12,26.9-26.9l0,0C53.8,12.1,41.8,0,26.9,0L26.9,0z M34.4,16.4h-3.5c-1.3,0-1.5,0.5-1.5,1.8v3.1h5.1L34,26.8h-4.6v16.4
		h-6.5V26.8h-3.4v-5.6h3.4v-4.4c0-4.1,2.2-6.3,7.1-6.3h4.5L34.4,16.4L34.4,16.4z"/>
</g>
</svg>
