<svg xmlns="http://www.w3.org/2000/svg" xmlns:xlink="http://www.w3.org/1999/xlink" width="642.188" height="145.996" viewBox="0 0 642.188 145.996">
  <defs>
    <clipPath id="clip-path">
      <rect id="Rectangle_4230" data-name="Rectangle 4230" width="642.188" height="145.996" fill="none"/>
    </clipPath>
  </defs>
  <g id="Group_610" data-name="Group 610" transform="translate(0 0)">
    <g id="Group_609" data-name="Group 609" transform="translate(0 0)" clip-path="url(#clip-path)">
      <path id="Path_6973" data-name="Path 6973" d="M71.2,41.593A6.721,6.721,0,1,0,64.181,48,6.721,6.721,0,0,0,71.2,41.593" transform="translate(49.914 29.871)" fill="#00488c"/>
      <path id="Path_6974" data-name="Path 6974" d="M69.759,49.107a6.611,6.611,0,1,0-6.9,6.3,6.612,6.612,0,0,0,6.9-6.3" transform="translate(48.86 36.462)" fill="#00488c"/>
      <path id="Path_6975" data-name="Path 6975" d="M65.745,55.7A6.459,6.459,0,1,0,59,61.865,6.46,6.46,0,0,0,65.745,55.7" transform="translate(45.654 42.301)" fill="#00488c"/>
      <path id="Path_6976" data-name="Path 6976" d="M59.614,60.58a6.263,6.263,0,1,0-6.541,5.973,6.264,6.264,0,0,0,6.541-5.973" transform="translate(40.694 46.691)" fill="#00488c"/>
      <path id="Path_6977" data-name="Path 6977" d="M52.177,63.172a6.1,6.1,0,1,0-6.368,5.816,6.1,6.1,0,0,0,6.368-5.816" transform="translate(34.553 49.08)" fill="#00488c"/>
      <path id="Path_6978" data-name="Path 6978" d="M44.238,63.134a5.918,5.918,0,1,0-6.18,5.645,5.917,5.917,0,0,0,6.18-5.645" transform="translate(28.004 49.211)" fill="#00488c"/>
      <path id="Path_6979" data-name="Path 6979" d="M36.671,60.444A5.69,5.69,0,1,0,30.73,65.87a5.689,5.689,0,0,0,5.941-5.426" transform="translate(21.86 47.092)" fill="#00488c"/>
      <path id="Path_6980" data-name="Path 6980" d="M30.456,55.447a5.484,5.484,0,1,0-5.727,5.231,5.485,5.485,0,0,0,5.727-5.231" transform="translate(16.844 42.96)" fill="#00488c"/>
      <path id="Path_6981" data-name="Path 6981" d="M26.232,48.708a5.253,5.253,0,1,0-5.484,5.009,5.252,5.252,0,0,0,5.484-5.009" transform="translate(13.594 37.346)" fill="#00488c"/>
      <path id="Path_6982" data-name="Path 6982" d="M24.493,41.036a5.012,5.012,0,1,0-5.234,4.78,5.014,5.014,0,0,0,5.234-4.78" transform="translate(12.507 30.933)" fill="#00488c"/>
      <path id="Path_6983" data-name="Path 6983" d="M25.367,33.325a4.734,4.734,0,1,0-4.944,4.515,4.733,4.733,0,0,0,4.944-4.515" transform="translate(13.742 24.521)" fill="#00488c"/>
      <path id="Path_6984" data-name="Path 6984" d="M28.424,26.424a4.3,4.3,0,1,0-4.489,4.1,4.3,4.3,0,0,0,4.489-4.1" transform="translate(17.137 18.951)" fill="#00488c"/>
      <path id="Path_6985" data-name="Path 6985" d="M54.447,19.7a1.778,1.778,0,1,0-1.857,1.7,1.778,1.778,0,0,0,1.857-1.7" transform="translate(43.977 15.419)" fill="#00488c"/>
      <path id="Path_6986" data-name="Path 6986" d="M58.284,23.436a1.128,1.128,0,1,0-1.178,1.076,1.128,1.128,0,0,0,1.178-1.076" transform="translate(48.416 19.233)" fill="#00488c"/>
      <path id="Path_6987" data-name="Path 6987" d="M61.339,30.893a.474.474,0,1,0-.494.451.473.473,0,0,0,.494-.451" transform="translate(52.186 26.269)" fill="#00488c"/>
      <path id="Path_6988" data-name="Path 6988" d="M60.284,27a.592.592,0,1,0-.619.565A.592.592,0,0,0,60.284,27" transform="translate(51.071 22.794)" fill="#00488c"/>
      <path id="Path_6989" data-name="Path 6989" d="M68.075,27.423a.592.592,0,1,0-.619.565.593.593,0,0,0,.619-.565" transform="translate(57.801 23.162)" fill="#00488c"/>
      <path id="Path_6990" data-name="Path 6990" d="M78.567,41.541a6.721,6.721,0,1,0-7.018,6.411,6.721,6.721,0,0,0,7.018-6.411" transform="translate(56.281 29.826)" fill="#00488c"/>
      <path id="Path_6991" data-name="Path 6991" d="M77.582,48.838a6.646,6.646,0,1,0-6.94,6.338,6.646,6.646,0,0,0,6.94-6.338" transform="translate(55.56 36.2)" fill="#00488c"/>
      <path id="Path_6992" data-name="Path 6992" d="M74.766,55.675a6.546,6.546,0,1,0-6.836,6.243,6.547,6.547,0,0,0,6.836-6.243" transform="translate(53.299 42.198)" fill="#00488c"/>
      <path id="Path_6993" data-name="Path 6993" d="M70.277,61.617a6.416,6.416,0,1,0-6.7,6.12,6.419,6.419,0,0,0,6.7-6.12" transform="translate(49.644 47.448)" fill="#00488c"/>
      <path id="Path_6994" data-name="Path 6994" d="M64.417,66.3a6.279,6.279,0,1,0-6.556,5.988A6.279,6.279,0,0,0,64.417,66.3" transform="translate(44.817 51.617)" fill="#00488c"/>
      <path id="Path_6995" data-name="Path 6995" d="M57.565,69.422a6.15,6.15,0,1,0-6.422,5.865,6.148,6.148,0,0,0,6.422-5.865" transform="translate(39.121 54.435)" fill="#00488c"/>
      <path id="Path_6996" data-name="Path 6996" d="M50.138,70.8a6.026,6.026,0,1,0-6.293,5.747A6.025,6.025,0,0,0,50.138,70.8" transform="translate(32.916 55.732)" fill="#00488c"/>
      <path id="Path_6997" data-name="Path 6997" d="M42.547,70.308a5.879,5.879,0,1,0-6.139,5.607,5.879,5.879,0,0,0,6.139-5.607" transform="translate(26.61 55.446)" fill="#00488c"/>
      <path id="Path_6998" data-name="Path 6998" d="M35.261,67.99A5.712,5.712,0,1,0,29.3,73.437a5.713,5.713,0,0,0,5.965-5.447" transform="translate(20.603 53.592)" fill="#00488c"/>
      <path id="Path_6999" data-name="Path 6999" d="M28.754,63.992a5.547,5.547,0,1,0-5.792,5.29,5.546,5.546,0,0,0,5.792-5.29" transform="translate(15.265 50.287)" fill="#00488c"/>
      <path id="Path_7000" data-name="Path 7000" d="M23.413,58.557a5.379,5.379,0,1,0-5.617,5.13,5.379,5.379,0,0,0,5.617-5.13" transform="translate(10.941 45.743)" fill="#00488c"/>
      <path id="Path_7001" data-name="Path 7001" d="M19.523,52.009a5.183,5.183,0,1,0-5.412,4.944,5.182,5.182,0,0,0,5.412-4.944" transform="translate(7.917 40.262)" fill="#00488c"/>
      <path id="Path_7002" data-name="Path 7002" d="M17.384,44.78a5.012,5.012,0,1,0-5.234,4.78,5.014,5.014,0,0,0,5.234-4.78" transform="translate(6.364 34.168)" fill="#00488c"/>
      <path id="Path_7003" data-name="Path 7003" d="M17.013,37.282a4.794,4.794,0,1,0-5.005,4.571,4.793,4.793,0,0,0,5.005-4.571" transform="translate(6.421 27.887)" fill="#00488c"/>
      <path id="Path_7004" data-name="Path 7004" d="M18.492,30.006A4.583,4.583,0,1,0,13.7,34.378a4.586,4.586,0,0,0,4.787-4.371" transform="translate(8.063 21.789)" fill="#00488c"/>
      <path id="Path_7005" data-name="Path 7005" d="M21.54,23.345a4.265,4.265,0,1,0-4.453,4.068,4.265,4.265,0,0,0,4.453-4.068" transform="translate(11.246 16.322)" fill="#00488c"/>
      <path id="Path_7006" data-name="Path 7006" d="M26.063,17.752a3.926,3.926,0,1,0-4.1,3.745,3.925,3.925,0,0,0,4.1-3.745" transform="translate(15.74 11.795)" fill="#00488c"/>
      <path id="Path_7007" data-name="Path 7007" d="M31.8,13.586a3.6,3.6,0,1,0-3.762,3.436A3.6,3.6,0,0,0,31.8,13.586" transform="translate(21.255 8.486)" fill="#00488c"/>
      <path id="Path_7008" data-name="Path 7008" d="M38.217,11.046a3.2,3.2,0,1,0-3.339,3.05,3.2,3.2,0,0,0,3.339-3.05" transform="translate(27.499 6.658)" fill="#00488c"/>
      <path id="Path_7009" data-name="Path 7009" d="M44.939,10.306a2.755,2.755,0,1,0-2.876,2.628,2.755,2.755,0,0,0,2.876-2.628" transform="translate(34.073 6.418)" fill="#00488c"/>
      <path id="Path_7010" data-name="Path 7010" d="M51.455,11.378a2.243,2.243,0,1,0-2.343,2.14,2.245,2.245,0,0,0,2.343-2.14" transform="translate(40.589 7.806)" fill="#00488c"/>
      <path id="Path_7011" data-name="Path 7011" d="M57.481,14.24a1.777,1.777,0,1,0-1.855,1.7,1.778,1.778,0,0,0,1.855-1.7" transform="translate(46.6 10.699)" fill="#00488c"/>
      <path id="Path_7012" data-name="Path 7012" d="M62.495,18.66a1.29,1.29,0,1,0-1.348,1.23,1.291,1.291,0,0,0,1.348-1.23" transform="translate(51.774 14.96)" fill="#00488c"/>
      <path id="Path_7013" data-name="Path 7013" d="M66,23.323a.847.847,0,1,0-.885.809A.849.849,0,0,0,66,23.323" transform="translate(55.569 19.389)" fill="#00488c"/>
      <path id="Path_7014" data-name="Path 7014" d="M68.709,31.013a.387.387,0,1,0-.4.369.388.388,0,0,0,.4-.369" transform="translate(58.704 26.449)" fill="#00488c"/>
      <path id="Path_7015" data-name="Path 7015" d="M85.935,41.489A6.721,6.721,0,1,0,78.917,47.9a6.721,6.721,0,0,0,7.018-6.411" transform="translate(62.648 29.781)" fill="#00488c"/>
      <path id="Path_7016" data-name="Path 7016" d="M85.148,48.88a6.663,6.663,0,1,0-6.957,6.355,6.662,6.662,0,0,0,6.957-6.355" transform="translate(62.069 36.221)" fill="#00488c"/>
      <path id="Path_7017" data-name="Path 7017" d="M82.853,55.968a6.585,6.585,0,1,0-6.877,6.28,6.586,6.586,0,0,0,6.877-6.28" transform="translate(60.22 42.415)" fill="#00488c"/>
      <path id="Path_7018" data-name="Path 7018" d="M79.14,62.462a6.488,6.488,0,1,0-6.776,6.187,6.489,6.489,0,0,0,6.776-6.187" transform="translate(57.179 48.114)" fill="#00488c"/>
      <path id="Path_7019" data-name="Path 7019" d="M74.168,68.1a6.381,6.381,0,1,0-6.662,6.084A6.379,6.379,0,0,0,74.168,68.1" transform="translate(53.068 53.081)" fill="#00488c"/>
      <path id="Path_7020" data-name="Path 7020" d="M68.134,72.641a6.263,6.263,0,1,0-6.541,5.973,6.264,6.264,0,0,0,6.541-5.973" transform="translate(48.057 57.113)" fill="#00488c"/>
      <path id="Path_7021" data-name="Path 7021" d="M61.324,75.922A6.167,6.167,0,1,0,54.883,81.8a6.168,6.168,0,0,0,6.441-5.881" transform="translate(42.338 60.036)" fill="#00488c"/>
      <path id="Path_7022" data-name="Path 7022" d="M53.952,77.781a6.051,6.051,0,1,0-6.317,5.769,6.05,6.05,0,0,0,6.317-5.769" transform="translate(36.169 61.748)" fill="#00488c"/>
      <path id="Path_7023" data-name="Path 7023" d="M46.345,78.154a5.938,5.938,0,1,0-6.2,5.663,5.936,5.936,0,0,0,6.2-5.663" transform="translate(29.791 62.172)" fill="#00488c"/>
      <path id="Path_7024" data-name="Path 7024" d="M38.763,77.006a5.8,5.8,0,1,0-6.053,5.529,5.795,5.795,0,0,0,6.053-5.529" transform="translate(23.482 61.307)" fill="#00488c"/>
      <path id="Path_7025" data-name="Path 7025" d="M31.566,74.4a5.668,5.668,0,1,0-5.919,5.406A5.668,5.668,0,0,0,31.566,74.4" transform="translate(17.486 59.173)" fill="#00488c"/>
      <path id="Path_7026" data-name="Path 7026" d="M25.036,70.442a5.547,5.547,0,1,0-5.792,5.29,5.546,5.546,0,0,0,5.792-5.29" transform="translate(12.053 55.861)" fill="#00488c"/>
      <path id="Path_7027" data-name="Path 7027" d="M19.364,65.264A5.387,5.387,0,1,0,13.738,70.4a5.389,5.389,0,0,0,5.626-5.138" transform="translate(7.427 51.53)" fill="#00488c"/>
      <path id="Path_7028" data-name="Path 7028" d="M14.865,59.107a5.253,5.253,0,1,0-5.484,5.009,5.252,5.252,0,0,0,5.484-5.009" transform="translate(3.772 46.332)" fill="#00488c"/>
      <path id="Path_7029" data-name="Path 7029" d="M11.645,52.2a5.094,5.094,0,1,0-5.32,4.858,5.095,5.095,0,0,0,5.32-4.858" transform="translate(1.264 40.504)" fill="#00488c"/>
      <path id="Path_7030" data-name="Path 7030" d="M9.852,44.823a4.928,4.928,0,1,0-5.147,4.7,4.93,4.93,0,0,0,5.147-4.7" transform="translate(0 34.281)" fill="#00488c"/>
      <path id="Path_7031" data-name="Path 7031" d="M9.545,37.28a4.755,4.755,0,1,0-4.964,4.534A4.754,4.754,0,0,0,9.545,37.28" transform="translate(0.035 27.922)" fill="#00488c"/>
      <path id="Path_7032" data-name="Path 7032" d="M10.743,29.882a4.583,4.583,0,1,0-4.787,4.371,4.584,4.584,0,0,0,4.787-4.371" transform="translate(1.367 21.682)" fill="#00488c"/>
      <path id="Path_7033" data-name="Path 7033" d="M13.217,22.867a4.3,4.3,0,1,0-4.489,4.1,4.3,4.3,0,0,0,4.489-4.1" transform="translate(3.996 15.878)" fill="#00488c"/>
      <path id="Path_7034" data-name="Path 7034" d="M17.09,16.6a4.064,4.064,0,1,0-4.245,3.875A4.064,4.064,0,0,0,17.09,16.6" transform="translate(7.747 10.673)" fill="#00488c"/>
      <path id="Path_7035" data-name="Path 7035" d="M22.1,11.3a3.821,3.821,0,1,0-3.989,3.644A3.82,3.82,0,0,0,22.1,11.3" transform="translate(12.497 6.316)" fill="#00488c"/>
      <path id="Path_7036" data-name="Path 7036" d="M27.971,7.166a3.529,3.529,0,1,0-3.685,3.365,3.531,3.531,0,0,0,3.685-3.365" transform="translate(18.075 3.005)" fill="#00488c"/>
      <path id="Path_7037" data-name="Path 7037" d="M34.477,4.366a3.211,3.211,0,1,0-3.354,3.063,3.211,3.211,0,0,0,3.354-3.063" transform="translate(24.246 0.873)" fill="#00488c"/>
      <path id="Path_7038" data-name="Path 7038" d="M41.37,3.023a2.892,2.892,0,1,0-3.02,2.759,2.892,2.892,0,0,0,3.02-2.759" transform="translate(30.753 0.001)" fill="#00488c"/>
      <path id="Path_7039" data-name="Path 7039" d="M48.352,3.186a2.574,2.574,0,1,0-2.688,2.455,2.574,2.574,0,0,0,2.688-2.455" transform="translate(37.336 0.429)" fill="#00488c"/>
      <path id="Path_7040" data-name="Path 7040" d="M55.011,4.806A2.184,2.184,0,1,0,52.729,6.89a2.187,2.187,0,0,0,2.282-2.084" transform="translate(43.763 2.18)" fill="#00488c"/>
      <path id="Path_7041" data-name="Path 7041" d="M61.155,7.842a1.793,1.793,0,1,0-1.873,1.709,1.794,1.794,0,0,0,1.873-1.709" transform="translate(49.747 5.157)" fill="#00488c"/>
      <path id="Path_7042" data-name="Path 7042" d="M67.569,13.331a1.466,1.466,0,1,0-1.53,1.4,1.464,1.464,0,0,0,1.53-1.4" transform="translate(55.856 10.197)" fill="#00488c"/>
      <path id="Path_7043" data-name="Path 7043" d="M72.411,19.935a1.079,1.079,0,1,0-1.128,1.029,1.082,1.082,0,0,0,1.128-1.029" transform="translate(60.707 16.252)" fill="#00488c"/>
      <path id="Path_7044" data-name="Path 7044" d="M74.936,25.632a.713.713,0,1,0-.744.68.712.712,0,0,0,.744-.68" transform="translate(63.522 21.507)" fill="#00488c"/>
      <path id="Path_7045" data-name="Path 7045" d="M75.788,30.83a.335.335,0,1,0-.35.321.337.337,0,0,0,.35-.321" transform="translate(64.911 26.338)" fill="#00488c"/>
      <path id="Path_7046" data-name="Path 7046" d="M32.935,20.72a3.6,3.6,0,1,0-3.762,3.436,3.6,3.6,0,0,0,3.762-3.436" transform="translate(22.235 14.651)" fill="#00488c"/>
      <path id="Path_7047" data-name="Path 7047" d="M38.29,17.7a3.2,3.2,0,1,0-3.339,3.05A3.2,3.2,0,0,0,38.29,17.7" transform="translate(27.562 12.41)" fill="#00488c"/>
      <path id="Path_7048" data-name="Path 7048" d="M43.8,16.346a2.755,2.755,0,1,0-2.876,2.628A2.755,2.755,0,0,0,43.8,16.346" transform="translate(33.093 11.637)" fill="#00488c"/>
      <path id="Path_7049" data-name="Path 7049" d="M48.876,16.947a2.243,2.243,0,1,0-2.343,2.14,2.245,2.245,0,0,0,2.343-2.14" transform="translate(38.361 12.618)" fill="#00488c"/>
      <path id="Path_7050" data-name="Path 7050" d="M95.481,30.622h4.99v11.49l8.206-11.49h5.261L104.96,42.983l9.882,12.428h-6.1L100.471,44.29V55.411h-4.99Z" transform="translate(82.506 26.462)" fill="#1a1818"/>
      <rect id="Rectangle_4227" data-name="Rectangle 4227" width="4.992" height="24.789" transform="translate(199.636 57.083)" fill="#1a1818"/>
      <path id="Path_7051" data-name="Path 7051" d="M116.535,35.011h-5.359V30.622h15.675v4.388h-5.324v20.4h-4.992Z" transform="translate(96.068 26.462)" fill="#1a1818"/>
      <path id="Path_7052" data-name="Path 7052" d="M145.538,47.321A12.452,12.452,0,0,1,133.412,56.1a12.864,12.864,0,1,1-.034-25.727,12.628,12.628,0,0,1,12.16,8.91h-5.261a7.7,7.7,0,0,0-6.933-4.522c-4.824,0-7.939,4.053-7.939,8.441,0,4.522,3.249,8.51,7.973,8.51a7.811,7.811,0,0,0,6.9-4.388Z" transform="translate(104.053 26.245)" fill="#1a1818"/>
      <path id="Path_7053" data-name="Path 7053" d="M135.732,55.411V30.622h4.992v9.951h9.546V30.622h4.99V55.411h-4.99V44.961h-9.546v10.45Z" transform="translate(117.288 26.461)" fill="#1a1818"/>
      <path id="Path_7054" data-name="Path 7054" d="M148.711,30.622h13.9V35.01H153.7v5.628h8.743v4.388H153.7v6h8.911v4.39h-13.9Z" transform="translate(128.504 26.462)" fill="#1a1818"/>
      <path id="Path_7055" data-name="Path 7055" d="M174.138,47.806l-.1-17.183h4.791V55.409H174.4L162.983,38.26l.1,17.15h-4.791V30.622h4.455Z" transform="translate(136.784 26.462)" fill="#1a1818"/>
      <path id="Path_7056" data-name="Path 7056" d="M177.259,30.622h13.9V35.01h-8.91v5.628h8.743v4.388h-8.743v6h8.91v4.39h-13.9Z" transform="translate(153.173 26.462)" fill="#1a1818"/>
      <path id="Path_7057" data-name="Path 7057" d="M213.872,56.062c-.57,0-1.141,0-1.743-.034a8.562,8.562,0,0,1-5.626-2.01,13.017,13.017,0,0,1-7.136,2.077,12.865,12.865,0,1,1,13.064-13,11.693,11.693,0,0,1-2.613,7.805,6.71,6.71,0,0,0,4.054,1.139ZM199.3,34.757a7.492,7.492,0,0,0-7.7,8.375,13.022,13.022,0,0,1,4.153-.77,9.961,9.961,0,0,1,5.8,1.708,32.73,32.73,0,0,1,4.388,3.652,7.23,7.23,0,0,0,1.508-4.623,8.026,8.026,0,0,0-8.109-8.342Zm.067,16.95a6.993,6.993,0,0,0,3.585-.9,23.521,23.521,0,0,0-2.613-2.446,8.529,8.529,0,0,0-8.139-1.206,7.9,7.9,0,0,0,7.132,4.556Z" transform="translate(160.987 26.245)" fill="#1a1818"/>
      <path id="Path_7058" data-name="Path 7058" d="M207.437,30.622V45.865a7.5,7.5,0,0,0,.7,3.751,3.66,3.66,0,0,0,3.35,1.875,3.547,3.547,0,0,0,3.316-1.775,7.261,7.261,0,0,0,.7-3.851V30.622h4.99V45.865c0,3.683-.7,5.894-2.613,7.635a8.915,8.915,0,0,1-6.364,2.379,9.217,9.217,0,0,1-6.465-2.379c-2.278-2.177-2.613-4.321-2.613-7.635V30.622Z" transform="translate(174.936 26.462)" fill="#1a1818"/>
      <rect id="Rectangle_4228" data-name="Rectangle 4228" width="4.992" height="24.789" transform="translate(400.071 57.083)" fill="#1a1818"/>
      <path id="Path_7059" data-name="Path 7059" d="M227.243,30.622c4.187,0,5.861.6,7.3,1.709a8.2,8.2,0,0,1,2.815,6.331,8.4,8.4,0,0,1-2.612,6.263C233.072,46.3,231.4,46.9,227.78,46.9h-3.05v8.508h-4.99V30.622ZM224.73,42.515h2.949a6.72,6.72,0,0,0,3.249-.638,3.405,3.405,0,0,0,1.64-3.147,3.221,3.221,0,0,0-1.708-3.083,7.02,7.02,0,0,0-3.383-.636H224.73Z" transform="translate(189.881 26.462)" fill="#1a1818"/>
      <path id="Path_7060" data-name="Path 7060" d="M230.67,55.411V30.622H237.4l6.364,17.787,6.265-17.787H256.8V55.411h-4.621l.132-19.864-6.935,19.864h-3.281l-6.968-19.864.134,19.864Z" transform="translate(199.326 26.461)" fill="#1a1818"/>
      <path id="Path_7061" data-name="Path 7061" d="M247.21,30.622h13.9V35.01H252.2v5.628h8.743v4.388H252.2v6h8.91v4.39h-13.9Z" transform="translate(213.618 26.462)" fill="#1a1818"/>
      <path id="Path_7062" data-name="Path 7062" d="M272.637,47.806l-.1-17.183h4.791V55.409H272.9L261.482,38.26l.1,17.15h-4.791V30.622h4.455Z" transform="translate(221.898 26.462)" fill="#1a1818"/>
      <path id="Path_7063" data-name="Path 7063" d="M274.611,35.011h-5.359V30.622h15.675v4.388H279.6v20.4h-4.99Z" transform="translate(232.665 26.462)" fill="#1a1818"/>
      <path id="Path_7064" data-name="Path 7064" d="M303.513,38.444a8.221,8.221,0,0,0-1.844-2.045,7.505,7.505,0,0,0-4.755-1.64,8.04,8.04,0,0,0-8.04,8.407c0,5.6,4.088,8.543,8.04,8.543a8.208,8.208,0,0,0,4.925-1.508,6.575,6.575,0,0,0,2.546-3.751H295.14V42.43h15.008a14.754,14.754,0,0,1-1.107,6.232C306.729,53.82,301.4,56.1,296.948,56.1a12.842,12.842,0,0,1-13.064-12.931c0-7.4,5.894-12.8,13.129-12.8,5.6,0,10.519,3.551,12.13,8.073Z" transform="translate(245.309 26.245)" fill="#1a1818"/>
      <path id="Path_7065" data-name="Path 7065" d="M299.884,30.622h4.992v20.4h8.139v4.39H299.884Z" transform="translate(259.135 26.462)" fill="#1a1818"/>
      <rect id="Rectangle_4229" data-name="Rectangle 4229" width="4.99" height="24.789" transform="translate(574.702 57.083)" fill="#1a1818"/>
      <path id="Path_7066" data-name="Path 7066" d="M313.474,30.622h7.872c3.081,0,7.572.3,10.519,4.287a12.57,12.57,0,0,1,2.544,8.072c0,7-3.683,12.428-12.695,12.428h-8.241Zm4.992,20.4h3.518c5.359,0,7.436-3.516,7.436-7.971a9.3,9.3,0,0,0-1.674-5.561c-1.04-1.34-2.714-2.479-5.728-2.479h-3.551Z" transform="translate(270.878 26.462)" fill="#1a1818"/>
      <path id="Path_7067" data-name="Path 7067" d="M326.634,30.622h13.9V35.01h-8.91v5.628h8.745v4.388h-8.745v6h8.91v4.39h-13.9Z" transform="translate(282.25 26.462)" fill="#1a1818"/>
      <path id="Path_7068" data-name="Path 7068" d="M340.454,47.924c.168,3.35,2.412,3.985,3.484,3.985a3.352,3.352,0,0,0,3.383-3.283c0-2.11-1.775-2.645-5.225-4.019-1.877-.669-6.2-2.211-6.2-6.9,0-4.757,4.187-7.335,8.208-7.335,3.283,0,7.637,1.741,7.839,7.235h-4.925c-.2-1.139-.636-3.048-3.081-3.048a2.887,2.887,0,0,0-3.048,2.815c-.034,1.842,1.307,2.312,5.493,4.051,3.786,1.644,5.9,3.452,5.9,6.97,0,3.985-2.446,7.7-8.275,7.7-5.628,0-8.543-3.383-8.508-8.174Z" transform="translate(289.909 26.245)" fill="#1a1818"/>
    </g>
  </g>
</svg>
