<?xml version="1.0" encoding="utf-8"?>
<!-- Generator: Adobe Illustrator 26.3.1, SVG Export Plug-In . SVG Version: 6.00 Build 0)  -->
<svg version="1.1" xmlns="http://www.w3.org/2000/svg" xmlns:xlink="http://www.w3.org/1999/xlink" x="0px" y="0px"
	 viewBox="0 0 53.8 53.8" style="enable-background:new 0 0 53.8 53.8;" xml:space="preserve">
<style type="text/css">
	.st0{fill:#FFFFFF;}
</style>
<g id="Layer_1">
</g>
<g id="Layer_2">
	<g id="Group_15" transform="translate(0 0)">
		<path id="Path_21" class="st0" d="M38.4,18.2c-0.2-0.6-0.6-1.2-1.1-1.7c-0.5-0.5-1.1-0.9-1.7-1.1c-0.9-0.3-1.8-0.5-2.7-0.5
			c-1.6-0.1-2-0.1-6-0.1s-4.4,0-6,0.1c-0.9,0-1.9,0.2-2.7,0.5c-1.3,0.5-2.3,1.5-2.8,2.8c-0.3,0.9-0.5,1.8-0.5,2.7
			c-0.1,1.6-0.1,2-0.1,6s0,4.4,0.1,6c0,0.9,0.2,1.9,0.5,2.7c0.5,1.3,1.5,2.3,2.8,2.8c0.9,0.3,1.8,0.5,2.7,0.5c1.6,0.1,2,0.1,6,0.1
			s4.4,0,6-0.1c0.9,0,1.9-0.2,2.7-0.5c0.6-0.2,1.2-0.6,1.7-1.1c0.5-0.5,0.9-1.1,1.1-1.7c0.3-0.9,0.5-1.8,0.5-2.7
			c0.1-1.6,0.1-2,0.1-6s0-4.4-0.1-6C38.9,20,38.8,19.1,38.4,18.2z M26.9,34.5c-4.2,0-7.6-3.4-7.6-7.6s3.4-7.6,7.6-7.6
			s7.6,3.4,7.6,7.6S31.1,34.5,26.9,34.5L26.9,34.5z M34.8,20.8c-1,0-1.8-0.8-1.8-1.8s0.8-1.8,1.8-1.8c1,0,1.8,0.8,1.8,1.8
			C36.6,20,35.8,20.8,34.8,20.8L34.8,20.8z"/>
		<path id="Path_22" class="st0" d="M26.9,22c-2.7,0-4.9,2.2-4.9,4.9s2.2,4.9,4.9,4.9s4.9-2.2,4.9-4.9c0,0,0,0,0,0
			C31.8,24.2,29.6,22,26.9,22z"/>
		<path id="Path_23" class="st0" d="M26.9,0C12.1,0,0,12.1,0,26.9c0,0,0,0,0,0l0,0c0,14.9,12.1,26.9,26.9,26.9
			c14.9,0,26.9-12.1,26.9-26.9l0,0C53.8,12.1,41.8,0,26.9,0C26.9,0,26.9,0,26.9,0z M41.6,33c0,1.2-0.3,2.4-0.7,3.6
			c-0.4,1-0.9,1.9-1.7,2.6c-0.7,0.8-1.6,1.3-2.6,1.7c-1.1,0.4-2.4,0.7-3.6,0.7c-1.6,0.1-2.1,0.1-6.1,0.1s-4.5,0-6.1-0.1
			c-1.2,0-2.4-0.3-3.6-0.7c-1-0.4-1.9-0.9-2.6-1.7c-0.8-0.7-1.3-1.6-1.7-2.6c-0.4-1.1-0.7-2.4-0.7-3.6c-0.1-1.6-0.1-2.1-0.1-6.1
			s0-4.5,0.1-6.1c0-1.2,0.3-2.4,0.7-3.6c0.4-1,0.9-1.9,1.7-2.6c0.7-0.8,1.6-1.3,2.6-1.7c1.1-0.4,2.4-0.7,3.6-0.7
			c1.6-0.1,2.1-0.1,6.1-0.1s4.5,0,6.1,0.1c1.2,0,2.4,0.3,3.6,0.7c1,0.4,1.9,0.9,2.6,1.7c0.8,0.7,1.3,1.6,1.7,2.6
			c0.4,1.1,0.7,2.4,0.7,3.6c0.1,1.6,0.1,2.1,0.1,6.1S41.7,31.4,41.6,33z"/>
	</g>
</g>
</svg>
