<?xml version="1.0" encoding="utf-8"?>
<!-- Generator: Adobe Illustrator 26.3.1, SVG Export Plug-In . SVG Version: 6.00 Build 0)  -->
<svg version="1.1" id="Layer_1" xmlns="http://www.w3.org/2000/svg" xmlns:xlink="http://www.w3.org/1999/xlink" x="0px" y="0px"
	 viewBox="0 0 53.8 53.8" style="enable-background:new 0 0 53.8 53.8;" xml:space="preserve">
<style type="text/css">
	.st0{fill:#2FB2FC;}
</style>
<g id="Layer_1_00000125575736344754767040000014207550545657605281_">
</g>
<g id="Layer_2_00000023974285860367219600000009248364176819929771_">
	<path id="Path_29" class="st0" d="M26.9,0C12.1,0,0,12.1,0,26.9l0,0l0,0c0,14.9,12.1,26.9,26.9,26.9c14.9,0,26.9-12.1,26.9-26.9
		l0,0C53.8,12.1,41.8,0,26.9,0L26.9,0z M20.3,38.9h-5.6v-18h5.6V38.9z M17.5,18.6c-1.8,0-3.3-1.5-3.3-3.3s1.5-3.3,3.3-3.3
		s3.3,1.5,3.3,3.3l0,0C20.8,17.1,19.3,18.5,17.5,18.6L17.5,18.6z M41.2,38.9h-5.5v-9.4c0-2.6-1-4-3-4c-2.2,0-3.4,1.5-3.4,4v9.4H24
		v-18h5.4v2.4c1.2-1.9,3.2-3,5.4-3c3.8,0,6.5,2.3,6.5,7.2L41.2,38.9z"/>
</g>
</svg>
