<?xml version="1.0" encoding="utf-8"?>
<!-- Generator: Adobe Illustrator 26.3.1, SVG Export Plug-In . SVG Version: 6.00 Build 0)  -->
<svg version="1.1" id="Layer_1" xmlns="http://www.w3.org/2000/svg" xmlns:xlink="http://www.w3.org/1999/xlink" x="0px" y="0px"
	 viewBox="0 0 53.8 53.8" style="enable-background:new 0 0 53.8 53.8;" xml:space="preserve">
<style type="text/css">
	.st0{fill:#2FB2FC;}
</style>
<g id="Layer_1_00000142892114199717492940000007652687619966514844_">
</g>
<g id="Layer_2_00000031173795241465484960000003575880284242610604_">
	<path id="Path_38" class="st0" d="M26.9,0C12.1,0,0,12.1,0,26.9l0,0l0,0c0,14.9,12.1,26.9,26.9,26.9c14.9,0,26.9-12.1,26.9-26.9
		l0,0C53.8,12.1,41.8,0,26.9,0L26.9,0z M38.3,21.1c0.4,8.3-5.8,17.5-16.7,17.5c-3.2,0-6.3-0.9-9-2.6c3.1,0.4,6.2-0.5,8.7-2.4
		c-2.5,0-4.7-1.7-5.5-4.1c0.9,0.2,1.8,0.1,2.7-0.1c-2.8-0.6-4.8-3-4.7-5.8c0.8,0.5,1.7,0.7,2.7,0.7c-2.6-1.7-3.4-5.2-1.8-7.9
		c3,3.7,7.4,5.9,12.1,6.2c-0.7-3.2,1.2-6.3,4.4-7.1c2-0.5,4.2,0.2,5.6,1.7c1.3-0.3,2.6-0.7,3.7-1.4c-0.4,1.4-1.4,2.5-2.6,3.3
		c1.2-0.1,2.3-0.4,3.4-0.9C40.5,19.2,39.5,20.2,38.3,21.1L38.3,21.1z"/>
</g>
</svg>
