<?xml version="1.0" encoding="utf-8"?>
<!-- Generator: Adobe Illustrator 26.3.1, SVG Export Plug-In . SVG Version: 6.00 Build 0)  -->
<svg version="1.1" id="Layer_1" xmlns="http://www.w3.org/2000/svg" xmlns:xlink="http://www.w3.org/1999/xlink" x="0px" y="0px"
	 viewBox="0 0 53.8 53.8" style="enable-background:new 0 0 53.8 53.8;" xml:space="preserve">
<style type="text/css">
	.st0{fill:#2FB2FC;}
</style>
<g id="Layer_1_00000012439582981592205970000001348823298632284836_">
</g>
<g id="Layer_2_00000011735552019850931270000005189509480471008443_">
	<g id="Group_33" transform="translate(0 0)">
		<path id="Path_67" class="st0" d="M26.9,0L26.9,0C12.1,0,0,12,0,26.9s12,26.9,26.9,26.9l0,0l0,0c14.9,0,26.9-12.1,26.9-26.9
			S41.8,0,26.9,0z M43,35.1c-0.4,1.5-1.5,2.6-3,3c-2.6,0.7-13.2,0.7-13.2,0.7s-10.5,0-13.2-0.7c-1.5-0.4-2.6-1.5-3-3
			c-0.5-2.7-0.7-5.4-0.7-8.2c0-2.7,0.2-5.5,0.7-8.2c0.4-1.5,1.5-2.6,3-3C16.4,15,26.9,15,26.9,15s10.5,0,13.2,0.7
			c1.5,0.4,2.6,1.5,3,3c0.5,2.7,0.7,5.4,0.7,8.2C43.8,29.6,43.5,32.4,43,35.1z"/>
		<path id="Path_68" class="st0" d="M23.5,31.9l8.8-5l-8.8-5V31.9z"/>
	</g>
</g>
</svg>
